PathFileType	3	(X/Y/Z)	results
DataRate	CameraRate	NumFrames	NumMarkers	Units	OrigDataRate	OrigDataStartFrame	OrigNumFrames
30.0	30.0	4	85	mm	30.0	100	199
Frame#	Time	head			nose			neck			shoulder_r			elbow_r			wrist_r			shoulder_l			elbow_l			wrist_l			hip_r			knee_r			ankle_r			hip_l			knee_l			ankle_l			heel_r			heel_l			mtoe_r			ltoe_r			mtoe_l			ltoe_l			asis_l			asis_r			psi_r			psi_l			mhnd_r			lhnd_r			mhnd_l			lhnd_l			l_lat_knee			r_med_wrist			l_lat_ankle			r_med_ankle			r_lat_knee			xiphoid			l_med_ankle			r_med_knee			l_med_elbow			navel			r_lat_elbow			r_lat_wrist			l_med_wrist			l_lat_elbow			l_med_knee			r_med_elbow			r_lat_ankle			l_lat_wrist			chin			T10			r_eye			l_eye			l_ear			r_ear			spinal_cord_8			spinal_cord_12			spinal_cord_27			spinal_cord_33			up_arm_r_0			up_arm_r_5			up_arm_l_0			up_arm_l_5			front_torso_11			front_torso_7			front_torso_4			front_torso_1			front_torso_10			thigh_r_2			thigh_r_3			thigh_l_1			thigh_l_5			shank_l_0			shank_l_4			shank_r_1			shank_r_2			foot_r_1			foot_r_3			foot_r_5			foot_r_6			foot_r_7			foot_l_1			foot_l_7			foot_l_0			foot_l_4			foot_l_5			foot_l_6			
		X1	Y1	Z1	X2	Y2	Z2	X3	Y3	Z3	X4	Y4	Z4	X5	Y5	Z5	X6	Y6	Z6	X7	Y7	Z7	X8	Y8	Z8	X9	Y9	Z9	X10	Y10	Z10	X11	Y11	Z11	X12	Y12	Z12	X13	Y13	Z13	X14	Y14	Z14	X15	Y15	Z15	X16	Y16	Z16	X17	Y17	Z17	X18	Y18	Z18	X19	Y19	Z19	X20	Y20	Z20	X21	Y21	Z21	X22	Y22	Z22	X23	Y23	Z23	X24	Y24	Z24	X25	Y25	Z25	X26	Y26	Z26	X27	Y27	Z27	X28	Y28	Z28	X29	Y29	Z29	X30	Y30	Z30	X31	Y31	Z31	X32	Y32	Z32	X33	Y33	Z33	X34	Y34	Z34	X35	Y35	Z35	X36	Y36	Z36	X37	Y37	Z37	X38	Y38	Z38	X39	Y39	Z39	X40	Y40	Z40	X41	Y41	Z41	X42	Y42	Z42	X43	Y43	Z43	X44	Y44	Z44	X45	Y45	Z45	X46	Y46	Z46	X47	Y47	Z47	X48	Y48	Z48	X49	Y49	Z49	X50	Y50	Z50	X51	Y51	Z51	X52	Y52	Z52	X53	Y53	Z53	X54	Y54	Z54	X55	Y55	Z55	X56	Y56	Z56	X57	Y57	Z57	X58	Y58	Z58	X59	Y59	Z59	X60	Y60	Z60	X61	Y61	Z61	X62	Y62	Z62	X63	Y63	Z63	X64	Y64	Z64	X65	Y65	Z65	X66	Y66	Z66	X67	Y67	Z67	X68	Y68	Z68	X69	Y69	Z69	X70	Y70	Z70	X71	Y71	Z71	X72	Y72	Z72	X73	Y73	Z73	X74	Y74	Z74	X75	Y75	Z75	X76	Y76	Z76	X77	Y77	Z77	X78	Y78	Z78	X79	Y79	Z79	X80	Y80	Z80	X81	Y81	Z81	X82	Y82	Z82	X83	Y83	Z83	X84	Y84	Z84	X85	Y85	Z85	
100	3.3333333333333335	-3359.1044717160607	1593.3411110611617	-1013.5018041655446	-3286.1216698629146	1380.6053213991029	-1047.79876859699	-3478.3498804639594	1292.0519873267012	-991.0815629730257	-3402.387133173202	1242.3851220155811	-808.2789779034941	-3477.906452787742	998.188950308573	-707.2055307397112	-3455.8782043178476	768.9216141106276	-669.8544532253289	-3542.324144877807	1248.4504893872188	-1144.0446011512768	-3686.026576314266	1035.6785603252579	-1223.6890783707825	-3697.6586719771517	806.8981063028805	-1184.5122914540113	-3591.1221175632727	774.6819346988451	-856.4193432626685	-3363.432657790412	504.8218246520806	-966.2757809967158	-3490.011981401066	156.160341867018	-883.7909120653371	-3690.9701478003753	835.396168377655	-1015.9323015039523	-3656.884222525633	467.06436974474565	-1039.1084010141926	-3830.31783919121	129.32873412856094	-991.0240554658848	-3522.4329296331107	103.27242346724763	-871.5319244853532	-3872.785948520984	67.25736223656665	-983.5091245983081	-3337.4840157560625	63.55522230342246	-958.5681452326731	-3364.6839949752903	59.72867746058937	-880.7857512959532	-3670.8184559560586	72.71803947674354	-1046.337042116478	-3744.821287369466	62.562289243742605	-1099.2170368701456	-3642.4774531494463	869.2102150022974	-1087.8772953854584	-3500.5748755832064	780.2066217034139	-851.6677160173873	-3631.7949988247797	914.3009380744371	-839.1937455793836	-3677.787830695863	940.5068484374102	-922.6960416831499	-3471.106622233739	704.9735206105656	-637.2902950149728	-3431.187509585754	685.6325938635857	-667.3142063642932	-3722.0118244684522	735.2937760376278	-1194.226232556894	-3687.31879942532	724.276582009269	-1155.1012690066805	-3670.8354128387355	466.09471087832526	-1083.2249205676987	-3470.3786837689927	780.422488437815	-647.0673344107646	-3856.827658546692	119.58180703284188	-1037.3320827528253	-3493.730670554343	139.52272994004855	-917.1811549413914	-3346.8329798379273	498.39436505753673	-929.9756864707482	-3444.0984952475683	1102.938012974893	-1025.4950152499976	-3814.728871431125	112.2011468123521	-965.3309302481429	-3381.721846150327	503.1271681409415	-1001.0726508527318	-3711.3398124797623	1059.0115070871216	-1210.2272428080535	-3483.972897927893	886.6934475945486	-1007.3169995549081	-3440.9653444064256	1002.5753951956984	-687.6546711121681	-3446.4323034002805	772.3587817106652	-700.627156392327	-3707.455345824558	812.2640386800839	-1214.8544406924968	-3650.2143192756716	1033.0089717820354	-1243.2865354713706	-3629.265820176152	469.4471728497185	-1002.6170894462891	-3508.8556837197916	1005.7686377872952	-729.2382071750241	-3476.7717193627977	142.75440231468883	-837.9691088697725	-3676.9123002362426	817.0241573531753	-1163.6413602915493	-3324.7754749202954	1307.3691813054133	-1036.1626194702537	-3588.153802461085	1164.56280416505	-906.3663509505403	-3266.7357135836282	1412.354639805267	-1016.203024636257	-3291.1200485438967	1414.1597434246885	-1085.8937261544781	-3410.313491155491	1437.5162149382775	-1102.9933309155936	-3353.1544989013146	1430.5007993196316	-929.0551901572471	-3501.8117245033372	1362.162602072274	-969.0565463678633	-3567.324003583047	1261.796436537368	-922.00904517246	-3601.909432345176	1012.8274357031519	-885.3415232051441	-3580.632050231211	1151.843555706927	-913.1891911685673	-3405.773925793667	1100.0479496661742	-785.5073557804578	-3461.692400534353	1115.4515646042466	-713.0071176498045	-3549.65248418999	1198.1551911507734	-1179.4525298526698	-3681.6092220370715	1118.5824743149033	-1200.2840122652678	-3473.9510962508757	921.8734128889538	-945.2628559997743	-3439.9011141604515	1010.5825864944222	-1031.6866027743406	-3474.3118014066254	1148.1199540532773	-1090.6898364749777	-3544.631455329247	958.4291456620647	-1053.4673187259432	-3359.1913126061318	1179.8612541471887	-977.101856468756	-3477.428333010869	628.7907427044983	-929.9114991385119	-3419.3281156424864	602.4463534511434	-858.1134629235206	-3655.4304953575997	573.0574007379721	-988.8855159972809	-3692.806391088778	740.1435575878306	-1117.2483834643926	-3801.7510231993533	208.47323179246402	-1068.436958887224	-3704.759892161488	332.95412687036054	-976.7373937997475	-3398.7680057310836	361.1931854382513	-877.203035526126	-3438.988296403906	317.3048438666813	-961.2516429874759	-3345.5972636718298	56.63201248419623	-932.6393985049524	-3350.5889340273566	57.562563861758896	-905.9006374161911	-3408.5578512426387	86.93575632924839	-937.3165512516716	-3405.2856429530034	90.15574427809386	-900.8135574261312	-3406.7509030954807	75.71528694121997	-870.95070203167	-3708.9419157823136	62.64746431526136	-1082.1327950056052	-3807.4899679146733	88.53099970801448	-1063.1989379429938	-3720.573081210528	63.12212492259618	-1092.7072191189327	-3695.2206687708217	62.015921845156946	-1068.9403983326981	-3748.9368990243047	75.280463326351	-1055.6465848744206	-3765.546944265482	84.05423587860072	-1018.7557848786162	
101	3.3666666666666667	-3346.0168658194225	1584.5699462959753	-997.0312508505178	-3274.10195661286	1371.804479531413	-1033.3408821479727	-3470.8249199858387	1285.1396360851652	-986.0294102869216	-3401.8550357295767	1237.5665447546803	-799.9598153879991	-3492.525882242574	1007.3872452194789	-680.18057139693	-3474.5297975699095	778.5578841108527	-638.2625251577416	-3529.7766867549567	1241.1163725555914	-1141.177262160956	-3668.6243366176805	1027.5397853011923	-1227.0370132287815	-3660.5656787170024	801.3551403192711	-1174.2526705449907	-3599.2667296340974	768.6721685554984	-850.720704619456	-3356.0855108629075	506.47786604731937	-946.2667532402445	-3495.1120207362655	160.6689964408894	-872.2480826213256	-3692.0819185373134	838.5746225161254	-1010.7182633491527	-3653.6721306984405	470.4641612770172	-1033.3786258575271	-3837.361189726063	136.56580496969474	-998.351486516802	-3529.812814952066	109.24758711037123	-862.2737932302841	-3881.152537255502	74.70686347409936	-994.0417323043592	-3340.28842933735	59.16191216628966	-932.4933984507899	-3373.9368290024167	58.818049697125865	-857.1790632942611	-3675.5953804557325	81.62717878222315	-1043.7045835413328	-3745.805781549139	68.61751392030247	-1100.9505472735273	-3640.26033603138	866.6422881502502	-1082.8136381015138	-3508.6438033447903	764.6549386592222	-845.8988530148677	-3625.009876513525	911.9040743801468	-834.3994873904668	-3667.9437278171695	942.2897441363265	-918.1139978517949	-3491.348013368454	715.4279261571196	-604.8942198280383	-3451.0742577109518	694.9985933669423	-633.6988934372715	-3679.2969791242062	727.5890974383874	-1178.9777211797357	-3642.739529672126	721.7490086888783	-1140.4395118717787	-3663.878687575462	469.8882270606664	-1078.4839642083382	-3489.34935393682	790.6693031799758	-616.0031209498129	-3865.4789252026076	130.25370733803055	-1044.3053424642299	-3496.809107362531	144.0009391294137	-905.7867597183332	-3341.7130049691477	500.9017722725275	-908.924083908897	-3434.1059279697224	1095.8714194051133	-1016.8643930511587	-3821.666533839088	117.54938433033996	-974.0912233440645	-3372.5282587524953	504.31840611295365	-981.9525544487637	-3694.440491314941	1049.8233724374422	-1212.7760438554046	-3473.3479202513827	879.5937152256922	-997.7295814005957	-3455.8097073066183	1011.5316114970221	-660.1588525497934	-3464.382564001429	781.304440609168	-668.8809592092681	-3671.6136891732804	804.077901480132	-1204.5172059912613	-3632.8305594585354	1026.348399321617	-1246.8130314864331	-3629.475729759218	472.89367289543463	-994.5536582257646	-3522.562158097024	1014.61832606559	-703.5531833830984	-3485.3944383581124	147.15045774515866	-825.5846161140931	-3640.130371148918	814.3404977176796	-1154.6995808733604	-3313.958216684457	1298.7857802575586	-1024.8087712019196	-3583.0840009029707	1157.9154099159355	-904.1822644327622	-3255.578251242005	1402.6212650329949	-1000.3359790692805	-3277.296579298737	1406.246451466812	-1070.832931615993	-3395.5004724572436	1431.363668536119	-1091.855848992527	-3345.019803485597	1419.8495573839652	-916.1004207212029	-3495.555771687736	1355.3433419382425	-965.7591749458784	-3562.2485614083007	1255.097335405894	-920.1356805955514	-3596.730640734667	1006.3442473488267	-881.9373846430506	-3575.2239594965044	1145.1681979765729	-910.5568642985907	-3413.401263252056	1098.129228087873	-765.1200805791237	-3469.87761591069	1122.691832599248	-695.6396390902995	-3536.026197478535	1191.791611048742	-1178.1239063211324	-3666.11140736237	1109.75314028949	-1201.0558942932505	-3465.975799061458	915.5465429368592	-935.7470902594486	-3429.1090085414844	1003.4804906669466	-1021.8066240836355	-3462.0185635099524	1140.1058673436264	-1083.713587332032	-3532.5883398219553	950.3991184978523	-1047.049866065274	-3351.6259403424006	1173.8958802903655	-966.0948386120414	-3476.5076742277697	626.6972888921377	-916.9397455591998	-3421.8303048077196	602.4869156050723	-841.7808258868207	-3657.3801370337105	576.2525356651897	-982.4493118413382	-3684.531574376306	744.0469555945011	-1112.4477704005064	-3808.22827645028	218.8301182407109	-1072.2198033286775	-3704.431162050411	334.8122233732685	-976.899851021137	-3400.463021131174	363.86802591844014	-859.636522471889	-3435.552457036602	320.51680230337666	-946.224221499042	-3350.807330676962	53.366917684504735	-907.1591077289715	-3357.934678987691	55.30745430570174	-880.9640840212952	-3411.7555213359296	86.1510468270674	-917.871118178278	-3411.356166708421	90.32090682928548	-881.3198252989242	-3415.915069060105	76.85551831536013	-851.3137650908502	-3711.131759099277	69.82740373915085	-1081.5738547244714	-3811.081488313208	94.62238430364263	-1069.9365227430442	-3722.048641222225	69.78294904623792	-1092.8940784737233	-3698.2992626761416	69.83028183756089	-1067.5012635386229	-3752.9624745418505	82.59303715638909	-1058.1657252675116	-3772.088210736808	92.21251820521701	-1022.7330339867868	
102	3.4	-3331.633191664192	1570.5373207763648	-981.3956991743914	-3262.451169499029	1357.0315345141464	-1018.6571320558302	-3459.2334731493843	1271.7075472694246	-980.0173748217784	-3397.432163304862	1222.5976070454074	-789.4066809401726	-3501.757516722785	1005.9222814912365	-656.2946846243213	-3494.1466830946165	777.4311221797697	-609.6285995364907	-3518.67399663849	1224.782778049471	-1134.5997605284952	-3656.306092497331	1013.7150916250024	-1228.2659939639836	-3633.122532306055	790.4089823786273	-1168.2033055840818	-3602.031110769883	758.9275256796436	-844.5818868055723	-3345.896769911171	504.2647299604477	-927.0628226856558	-3493.889552514851	160.93493772775312	-859.1386119143078	-3689.29836631028	830.1777410123973	-1007.0874685121811	-3647.2868895921324	461.99707723717745	-1026.363485357662	-3845.3792658012926	135.27000711428056	-1004.7876799660744	-3530.181977232329	110.63880464295131	-850.8081943469265	-3890.195632260045	73.05771982501885	-1004.8178524639657	-3338.0894874216688	53.13188434160795	-906.9534524758197	-3376.2428295082614	56.93758279981442	-833.9163299396987	-3682.460506529481	90.07326766033528	-1041.213222198662	-3748.2133782367177	74.43925909169499	-1102.922134062926	-3635.236908369176	854.6508023628932	-1078.8470766609776	-3511.7602477473765	750.9273453782596	-838.3311618483757	-3621.5103223086376	903.4295889075951	-831.0104229955715	-3661.827174286313	934.2747650831622	-915.8505687367436	-3513.565890680859	715.8893097242421	-574.7403856115288	-3474.6208053238834	692.9665042578924	-603.4956907018277	-3647.5179413998926	715.5448084034967	-1169.8599445890002	-3609.5590442406833	713.2397341676982	-1132.3158893614216	-3653.0861926187863	461.71329316716793	-1072.2019814429443	-3508.132545826053	790.6997262386283	-587.4897967581435	-3876.226029944264	133.69551780610067	-1049.3769682156515	-3494.605340313556	144.34825414418663	-892.752845127322	-3334.210275991428	498.66451467826425	-888.8278486338046	-3422.552616320691	1081.7738051511633	-1006.4980607884271	-3829.3708502666045	113.79885629533987	-982.8964223244275	-3360.0443511969	502.49433749787454	-963.7434263020855	-3682.1894126865413	1035.0927263805147	-1212.7915694279031	-3464.701953025411	866.0810969419929	-986.9478858274879	-3464.604850411851	1008.680084500601	-636.847412118548	-3484.2163404614716	779.0461561414265	-640.3983636881779	-3645.198689140005	791.4028325162479	-1198.1798425285906	-3620.7112869792295	1013.7504244468016	-1248.433129450167	-3627.374094593903	464.67767115765344	-985.2135169675396	-3531.529122621205	1013.865336414862	-679.7745642912417	-3486.208622000233	147.17557086482995	-812.1668700669285	-3612.9387798306507	805.2615081805235	-1149.7489502393666	-3303.926926412944	1284.6623735459366	-1012.6976893879838	-3576.946174089505	1146.4413885070176	-902.9513656901021	-3244.521559065005	1386.9696240186377	-984.5343328878871	-3263.6979009308666	1392.1099135907707	-1055.6714779275317	-3380.611212255652	1419.8039552913594	-1080.3557987712327	-3336.5109781751153	1404.5832544254647	-903.1713105069421	-3484.418652397337	1342.359672791445	-961.9884622739561	-3554.404848521154	1243.2421065681717	-918.9032713004532	-3593.137671356044	995.2775184319895	-879.6661219141106	-3568.860723383685	1133.5514363347645	-908.7290647536219	-3417.8106301606995	1086.3647340786647	-746.8013974341799	-3471.6724657482587	1118.4272710416808	-678.3081270339388	-3524.8246110599093	1177.0451448286833	-1173.5911866810097	-3654.3298166821432	1094.745797514171	-1198.7619581379881	-3460.4311967717354	902.7460546441894	-925.0914009851692	-3418.110184662965	989.2904216380477	-1010.0430769215471	-3446.3539874866983	1125.394241922165	-1075.312075420286	-3520.5109974874686	936.7454277492391	-1040.3072882850845	-3342.3012709738214	1159.7506874729593	-952.2058890988167	-3471.376401075729	621.1619924512421	-904.261181470384	-3421.3474570603844	597.1100606121145	-825.8824251442576	-3656.7223645202685	567.9205852411378	-975.8430632073712	-3671.15009113909	735.8642646814365	-1107.6707096917469	-3816.1861632417827	221.35880560427475	-1074.1357415107552	-3701.675142600533	325.01692357167576	-976.9050688411362	-3396.1274738722655	362.36186078927756	-842.492266918676	-3428.66177058383	319.7789346598124	-930.4481687311048	-3350.270729236874	48.72164202955919	-882.0893690742035	-3358.922185105717	51.99818640848799	-856.4932636741868	-3409.5984702446626	82.37712667667962	-897.9561814883087	-3411.3108374525773	88.1727918715498	-861.6653797445729	-3418.024581216661	76.17525121587484	-831.4420677060261	-3714.931734692981	77.04844327061696	-1081.3644848099107	-3816.4747137800937	97.03941193234681	-1075.928355961402	-3725.095509932812	76.6201340899113	-1093.3578988926106	-3703.03068088581	77.49421051439852	-1066.5025533990736	-3758.7158333685315	87.59803429202323	-1060.5709880355487	-3780.479141573142	95.92950290603977	-1026.3547804904713	
103	3.433333333333333	-3316.5431800279625	1551.8589979797548	-968.2001540660136	-3249.048052077585	1337.4318866472104	-1003.1959962080455	-3444.2885471643604	1253.278395695973	-974.2106821984825	-3386.2112855438	1202.2997089242142	-774.3596550602324	-3505.4695199308417	993.1511643119106	-641.7506830771409	-3516.6234283470208	767.4571243972849	-583.5987369059466	-3504.880701385621	1203.705171283309	-1125.426569901296	-3639.844866935758	995.8878002808624	-1229.6481592005057	-3612.190306124864	771.4657162631211	-1175.9771624070027	-3600.520194908704	745.4916063121658	-836.9458660264424	-3332.833222568029	499.22753352204353	-909.084955034229	-3486.491699538088	157.8423221841367	-843.9994859858286	-3679.1249832181416	812.818580003576	-1005.4350260003257	-3643.402759970676	443.60545931424997	-1021.6778610068234	-3855.8829494219403	125.78290685741655	-1004.42452851255	-3523.5983118367176	107.96246366660239	-836.9420274752878	-3901.461926460408	63.51839758623666	-1007.1990879603676	-3328.3578537157805	48.14347509407035	-877.7061373447485	-3371.1279770504293	55.470228183732495	-807.5518975542003	-3692.8926867495816	88.47360742047222	-1032.579080417652	-3755.0078596832977	73.06912710558177	-1098.0027721721451	-3621.3961206264335	835.1549576629064	-1075.0013827051234	-3510.723206235332	737.2624289830669	-825.9602106589261	-3619.829771422898	890.3852211887368	-828.1452289986432	-3655.6671091077324	919.1614047534981	-915.6800235844833	-3541.5345445476155	709.4546226578373	-546.2244963642494	-3503.835687444278	682.1806734006312	-572.7569316042335	-3625.025359214247	696.3992791995317	-1179.8382813537687	-3587.1244390976517	693.7947922695503	-1142.2552502645328	-3647.557848343459	443.4289871155811	-1067.6613492518916	-3530.040783539745	782.8765361782669	-562.527355403238	-3885.926881753837	125.59938234119406	-1049.585739192357	-3485.771352572032	140.84535709439845	-877.4080384381537	-3323.235500365073	493.65173561881437	-870.298786079112	-3408.7744441110017	1062.3920322350154	-994.7699407202331	-3841.236769897444	103.61233800166242	-982.2781484809875	-3345.210908916559	497.80646924083084	-946.418628232451	-3666.034338198944	1016.2851786262255	-1213.3857516889784	-3455.1453500317325	847.7013823766521	-973.7989071800869	-3468.740416178484	994.1533168525214	-621.352371205867	-3505.9004917952234	766.721568432956	-614.1352071438258	-3624.2065950388783	773.0758163659198	-1205.950991784538	-3604.122654775297	997.1873646940413	-1249.5463870788085	-3625.2535295461857	446.2933912374942	-979.7340780243801	-3534.150127719452	1002.389787779267	-666.0984953354931	-3481.112231688741	144.6119411257008	-796.5581564837776	-3592.3669735442622	786.1924938717891	-1157.0377293495667	-3291.814517572108	1265.6804225413646	-999.2203634899132	-3568.3244823784426	1131.1200884045156	-902.2419737729145	-3232.1282146305157	1367.009065044048	-968.2526824642555	-3248.208675322009	1372.6197976528886	-1040.1177402613139	-3363.5503295600165	1402.1342991197198	-1069.616808161154	-3327.1935874318583	1385.7972848371085	-890.7813180356143	-3469.521691035443	1324.5984189692447	-959.117620452463	-3543.4524543036623	1227.2815552936215	-918.5915356422058	-3588.09347483853	980.6720422464788	-877.1530295575452	-3560.083589461496	1118.0131577125137	-907.2622564695645	-3414.9913572954742	1067.8804123009165	-730.8504843480762	-3468.8122775183137	1103.6092924986694	-664.1632489452799	-3510.3146661336236	1157.7581760351611	-1166.613808840979	-3638.8476965381615	1075.4886791432164	-1196.43558886102	-3454.1774781393115	885.5217242678497	-912.5007166475518	-3405.4506368851607	969.8061852673727	-996.2838136545879	-3427.6504051060624	1104.9542030917587	-1065.7401886534549	-3506.530692313916	918.0266256577792	-1031.8439731101785	-3330.918167054269	1140.362657664404	-937.0872378848146	-3462.9365762188745	612.3827291569842	-891.3920616084775	-3416.39857452855	588.659012758999	-810.7941721407366	-3652.9305864643893	550.1262080562931	-971.9268806007034	-3658.8552435033944	717.7129266765394	-1104.860538182263	-3821.678434484672	210.59396863899195	-1073.0525625794946	-3704.6135623915584	309.0685484043194	-973.5027969419195	-3388.046995443642	358.75069808012773	-825.2432900266787	-3416.7829540423495	315.3150522410274	-914.1005692887336	-3342.119106659065	44.94049251493337	-853.4899371299603	-3352.3960537647367	49.458146968226075	-828.6964057196458	-3400.263528533507	77.65270917709958	-874.7823142175135	-3404.301104018464	85.22792342462735	-839.0072063767782	-3412.959924446981	74.72226227401293	-808.7232198448027	-3722.919230551602	75.92930858953484	-1074.7359046843358	-3825.2204068867263	92.46591830913461	-1073.6511069109654	-3732.4682254838904	75.62561454204075	-1087.2279910972545	-3711.7759321008734	76.19870995113334	-1059.2935888618433	-3767.9913609162736	84.29922356065792	-1055.7844334110832	-3791.6587409701965	90.65317826711915	-1022.4184898006525	
